<svg xmlns="http://www.w3.org/2000/svg" viewBox="0 0 787 961">
  <g transform="translate(0,961) scale(0.1,-0.1)" fill="#5A5D62" stroke="none">
    <path d="M5823 6545 c0 -8 4 -12 9 -9 5 3 6 10 3 15 -9 13 -12 11 -12 -6z M6300 6235 c-78 -52 -1061 -683 -1277 -820 -35 -22 -132 -84 -215 -138 -149 -96 -516 -331 -832 -532 -86 -55 -237 -152 -336 -215 -99 -63 -268 -171 -375 -240 -108 -69 -255 -163 -328 -211 -73 -47 -177 -113 -232 -148 -55 -34 -147 -93 -205 -131 -58 -38 -203 -131 -322 -207 l-218 -138 0 -467 0 -468 -661 0 c-380 0 -659 -4 -657 -9 2 -5 84 -94 184 -197 256 -268 673 -710 1124 -1191 107 -115 237 -253 290 -308 125 -130 399 -420 575 -609 76 -82 152 -157 169 -167 51 -31 132 -43 196 -29 51 11 62 18 150 109 136 141 431 450 605 636 149 159 241 257 406 430 47 49 170 180 274 290 388 410 522 551 650 685 60 63 161 168 223 232 61 64 112 119 112 122 0 3 -373 6 -830 6 l-830 0 0 208 0 208 190 125 c105 68 248 161 318 207 116 76 373 243 707 460 171 111 195 127 430 280 464 303 558 364 705 458 85 54 230 148 322 209 92 60 216 141 275 179 60 39 158 102 218 142 61 39 252 163 425 274 173 111 321 208 327 214 12 11 -78 63 -550 319 -29 16 -81 44 -117 64 -36 20 -135 74 -220 121 -85 46 -180 98 -210 115 -87 48 -363 197 -364 196 -1 0 -44 -29 -96 -64z M6510 4059 c-368 -236 -797 -505 -1345 -844 -506 -313 -525 -325 -500 -325 11 0 361 0 779 0 l759 0 266 175 266 175 -3 475 c-1 261 -6 475 -10 475 -4 0 -99 -59 -212 -131z"/>
  </g>
  <g transform="translate(0,961) scale(0.1,-0.1)" fill="#DD2D38" stroke="none">
    <path d="M380 9581 c-161 -52 -269 -158 -338 -329 l-27 -67 -3 -2730 c-2 -1998 0 -2746 8 -2789 19 -98 66 -183 145 -262 105 -106 218 -154 365 -154 145 0 206 26 479 205 86 56 219 141 296 190 77 48 208 132 290 185 83 54 238 153 345 220 107 68 290 184 405 258 222 144 443 284 770 492 110 70 259 165 330 212 72 46 299 192 505 323 353 224 753 481 1025 657 66 43 170 108 230 146 133 84 454 288 548 348 37 24 67 51 67 59 0 16 -52 52 -205 140 -55 32 -242 142 -415 245 -173 103 -358 212 -410 242 -52 30 -230 135 -395 233 -165 98 -370 219 -455 269 -85 51 -215 128 -288 171 -73 44 -147 89 -165 99 -55 33 -334 198 -517 306 -96 56 -317 187 -490 290 -173 103 -394 234 -490 290 -96 57 -267 159 -380 226 -113 67 -324 191 -470 276 -146 86 -293 173 -328 193 -35 21 -93 46 -130 56 -87 25 -227 24 -302 0z"/>
  </g>
</svg>
